<svg width="58" height="58" viewBox="0 0 58 58" fill="none" xmlns="http://www.w3.org/2000/svg">
<path fill-rule="evenodd" clip-rule="evenodd" d="M19.3334 3.02081C20.3344 3.02081 21.1459 3.8323 21.1459 4.83331V7.24998H36.8542V4.83331C36.8542 3.8323 37.6657 3.02081 38.6667 3.02081C39.6677 3.02081 40.4792 3.8323 40.4792 4.83331V7.24998H43.5C48.8391 7.24998 53.1667 11.5776 53.1667 16.9166V43.5C53.1667 48.839 48.8391 53.1666 43.5 53.1666H14.5C9.16102 53.1666 4.83337 48.839 4.83337 43.5V16.9166C4.83337 11.5776 9.16102 7.24998 14.5 7.24998H17.5209V4.83331C17.5209 3.8323 18.3324 3.02081 19.3334 3.02081ZM36.8542 10.875V14.5C36.8542 15.501 37.6657 16.3125 38.6667 16.3125C39.6677 16.3125 40.4792 15.501 40.4792 14.5V10.875H43.5C46.8314 10.875 49.5417 13.5853 49.5417 16.9166V43.5C49.5417 46.8314 46.8314 49.5416 43.5 49.5416H14.5C11.1687 49.5416 8.45837 46.8314 8.45837 43.5V16.9166C8.45837 13.5853 11.1687 10.875 14.5 10.875H17.5209V14.5C17.5209 15.501 18.3324 16.3125 19.3334 16.3125C20.3344 16.3125 21.1459 15.501 21.1459 14.5V10.875H36.8542ZM29.6937 21.2838C30.3709 21.5643 30.8125 22.2252 30.8125 22.9583V40.4791H32.625C33.6261 40.4791 34.4375 41.2906 34.4375 42.2916C34.4375 43.2927 33.6261 44.1041 32.625 44.1041H25.375C24.374 44.1041 23.5625 43.2927 23.5625 42.2916C23.5625 41.2906 24.374 40.4791 25.375 40.4791H27.1875V27.3341L25.4483 29.0733C24.7405 29.7811 23.5929 29.7811 22.8851 29.0733C22.1773 28.3655 22.1773 27.2178 22.8851 26.51L27.7184 21.6767C28.2368 21.1583 29.0164 21.0032 29.6937 21.2838Z" fill="white"/>
</svg>
